<svg id="Component_5_1" data-name="Component 5 – 1" xmlns="http://www.w3.org/2000/svg" width="21.617" height="16" viewBox="0 0 21.617 16">
  <path id="Path_9" data-name="Path 9" d="M8.055,5.177A14.974,14.974,0,0,0,4.719,6.251a3.8,3.8,0,0,0-1.335,1.66c-.5.922-.9,2-1.551,3.585a18.29,18.29,0,0,0-.781,5.576,2.2,2.2,0,0,0,1.084,2.213,21.261,21.261,0,0,0,2.691,1.476c.89.347,1.5.6,1.909.249a3.1,3.1,0,0,0,.684-.955s.391-.542-.347-.868S5.966,18.634,6,18.3s.086-.52.271-.477A4.607,4.607,0,0,0,8.559,19a15.4,15.4,0,0,0,3.3.3,15.4,15.4,0,0,0,3.3-.3,4.607,4.607,0,0,0,2.289-1.182c.184-.043.238.141.271.477s-.336.564-1.074.89-.347.868-.347.868a3.1,3.1,0,0,0,.684.955c.412.347,1.02.1,1.909-.249a21.26,21.26,0,0,0,2.691-1.476,2.2,2.2,0,0,0,1.084-2.213,18.29,18.29,0,0,0-.781-5.576c-.651-1.586-1.052-2.663-1.551-3.585A3.8,3.8,0,0,0,19,6.251a14.974,14.974,0,0,0-3.336-1.074.986.986,0,0,0-.949.51l-.255.564a19.59,19.59,0,0,0-2.589-.326,19.948,19.948,0,0,0-2.611.326L9,5.687a.986.986,0,0,0-.949-.51Zm.08,6.77h.027a2.014,2.014,0,0,1,1.933,2.086,2.014,2.014,0,0,1-1.933,2.086,2.014,2.014,0,0,1-1.933-2.086A2.017,2.017,0,0,1,8.134,11.946Zm7.422,0h.027a2.017,2.017,0,0,1,1.906,2.086,2.014,2.014,0,0,1-1.933,2.086,2.014,2.014,0,0,1-1.933-2.086A2.014,2.014,0,0,1,15.556,11.946Z" transform="translate(-1.05 -5.177)" fill="#fff"/>
</svg>
