<svg xmlns="http://www.w3.org/2000/svg" xmlns:xlink="http://www.w3.org/1999/xlink" width="14.473" height="13.221" viewBox="0 0 14.473 13.221">
  <defs>
    <linearGradient id="linear-gradient" x1="0.5" x2="0.5" y2="1" gradientUnits="objectBoundingBox">
      <stop offset="0" stop-color="#128ad2"/>
      <stop offset="1" stop-color="#128bc6"/>
    </linearGradient>
  </defs>
  <g id="Group_16" data-name="Group 16" transform="translate(-1 -1.649)">
    <path id="Path_22" data-name="Path 22" d="M11.979,14.87a1.328,1.328,0,0,1-.816-.281L8.511,12.535,6.733,14.5a.658.658,0,0,1-1.117-.252L4.286,9.85,1.9,9.02a1.343,1.343,0,0,1-.068-2.512l11.79-4.76a1.344,1.344,0,0,1,1.823,1.51L13.3,13.8a1.351,1.351,0,0,1-1.321,1.074Z" transform="translate(0 0)" fill="#fff"/>
    <path id="Path_23" data-name="Path 23" d="M7.889,16.491a.658.658,0,0,1-.63-.467l-1.426-4.71a.657.657,0,0,1,.326-.774l6.953-3.62a.658.658,0,0,1,.769,1.049l-4.66,4.66-.687,3.337a.657.657,0,0,1-.614.525Z" transform="translate(-1.643 -1.777)" fill="url(#linear-gradient)"/>
  </g>
</svg>
