<svg xmlns="http://www.w3.org/2000/svg" width="20.461" height="16.604" viewBox="0 0 20.461 16.604">
  <g id="Component_7_1" data-name="Component 7 – 1" transform="translate(0.136 0.354)">
    <path id="Path_7" data-name="Path 7" d="M21.654,5.766a8.343,8.343,0,0,1-2.319.629,4.059,4.059,0,0,0,1.779-2.231,8.068,8.068,0,0,1-2.565.983A4.029,4.029,0,0,0,11.67,8.823a11.439,11.439,0,0,1-8.3-4.216,4.088,4.088,0,0,0-.54,2.034A4.019,4.019,0,0,0,4.614,9.992a3.98,3.98,0,0,1-1.828-.5V9.54a4.029,4.029,0,0,0,3.243,3.931,3.862,3.862,0,0,1-1.081.167,4.815,4.815,0,0,1-.757-.069A4.039,4.039,0,0,0,7.955,16.36a8.078,8.078,0,0,1-4.973,1.73A7.793,7.793,0,0,1,2,18.031a11.37,11.37,0,0,0,6.181,1.818A11.39,11.39,0,0,0,19.689,8.37V7.85a8.284,8.284,0,0,0,1.965-2.083Z" transform="translate(-2 -3.849)" fill="none" stroke="#a6b2c5" stroke-width="0.5"/>
  </g>
</svg>
