<svg xmlns="http://www.w3.org/2000/svg" width="23.27" height="16.497" viewBox="0 0 23.27 16.497">
  <g id="Component_8_1" data-name="Component 8 – 1" transform="translate(0.25 0.25)">
    <path id="Path_8" data-name="Path 8" d="M23.756,9.9a8.792,8.792,0,0,0-.941-4.272,3.02,3.02,0,0,0-1.779-1.034,81.053,81.053,0,0,0-8.657-.321,81.139,81.139,0,0,0-8.626.31,2.969,2.969,0,0,0-1.51.765C1.311,6.2,1.207,7.673,1.1,8.915a49.947,49.947,0,0,0,0,6.7,9.878,9.878,0,0,0,.31,2.069,3.248,3.248,0,0,0,.734,1.407A2.958,2.958,0,0,0,3.69,19.9a46.731,46.731,0,0,0,6.723.341c3.62.052,6.8,0,10.55-.29a2.979,2.979,0,0,0,1.583-.807,2.576,2.576,0,0,0,.631-1.034,10.943,10.943,0,0,0,.538-3.517C23.756,14.014,23.756,10.518,23.756,9.9ZM10.04,15.214v-6.4l6.123,3.217C14.447,12.98,12.182,14.055,10.04,15.214Z" transform="translate(-0.991 -4.258)" fill="none" stroke="#a6b2c5" stroke-width="0.5"/>
  </g>
</svg>
